<?xml version="1.0" encoding="utf-8"?>
<!-- Generator: Adobe Illustrator 27.8.1, SVG Export Plug-In . SVG Version: 6.00 Build 0)  -->
<svg version="1.1" id="Ebene_1" xmlns="http://www.w3.org/2000/svg" xmlns:xlink="http://www.w3.org/1999/xlink" x="0px" y="0px"
	 viewBox="0 0 551.79 555.32" style="enable-background:new 0 0 551.79 555.32;" xml:space="preserve">
<style type="text/css">
	.st0{fill:none;stroke:#E72262;stroke-width:12;stroke-miterlimit:10;}
	.st0:hover { stroke: white; }
</style>
<path class="st0" d="M536.57,50.99c-0.75-10.17-2.31-20-4.72-29.4c-9.19-2.11-18.77-3.43-28.66-3.95
	c-73.13-3.87-163.05,35.2-235.67,109.64c-42.56,43.63-72.82,92.89-89.44,140.89c7.72,26.53,21.7,50.83,42.1,70.73
	c21.6,21.07,47.95,34.82,76.48,41.51c46.76-17.97,94.29-49.09,136.09-91.94C505.1,214.31,541.92,123.86,536.57,50.99z"/>
<g>
	<path class="st0" d="M230.52,170.64c-49.13-20.44-121.36,1.54-176.26,57.83c-13.31,13.64-24.57,28.25-33.7,43.25
		c59.82-34.02,122.15-37.45,157.25-3.21l0.29-0.3c0-0.01-0.01-0.02-0.01-0.03C189.39,235.52,207.02,202.29,230.52,170.64z"/>
	<path class="st0" d="M392.56,324.79c-30.9,24.51-63.58,43.21-95.89,55.63c-0.02,0-0.04-0.01-0.06-0.01l-0.25,0.26
		c35.1,34.24,33.22,96.63,0.69,157.28c14.77-9.5,29.1-21.12,42.4-34.76C394.63,446.6,414.74,373.39,392.56,324.79z"/>
	<path class="st0" d="M230.52,170.64c-23.51,31.65-41.13,64.89-52.44,97.54c0,0.01,0.01,0.02,0.01,0.03"/>
</g>
<circle class="st0" cx="408.12" cy="148.44" r="56.81"/>
<path class="st0" d="M177.17,454.08c-31.86,32.66-124.88,59.14-124.88,59.14s24.16-93.65,56.02-126.31s73.1-44.1,92.12-25.55
	S209.03,421.42,177.17,454.08z"/>
</svg>
