<?xml version="1.0" encoding="utf-8"?>
<!-- Generator: Adobe Illustrator 26.3.1, SVG Export Plug-In . SVG Version: 6.00 Build 0)  -->
<svg version="1.1" id="Ebene_1" xmlns="http://www.w3.org/2000/svg" xmlns:xlink="http://www.w3.org/1999/xlink" x="0px" y="0px"
	 viewBox="0 0 1024 1024" style="enable-background:new 0 0 1024 1024;" xml:space="preserve">
<style type="text/css">
	.st0{fill:#343434;}
	.st1{fill:#E72464;}
</style>
<g>
	<path class="st0" d="M437.58,811.88c-22.87-12.32-44.8-27.39-65.29-45.25l-94.36,108.26l108.2-3.97
		c145.07,86.59,324.96,79.9,454.04-15.84l-62.19-54.21C678.91,866.6,547.39,871.06,437.58,811.88z"/>
</g>
<g>
	<path class="st0" d="M730.65,235.35c22.87,12.32,44.8,27.39,65.29,45.25l94.36-108.26l-108.2,3.97
		c-145.07-86.59-324.96-79.9-454.04,15.84l62.19,54.21C489.31,180.63,620.84,176.17,730.65,235.35z"/>
</g>
<g>
	<path class="st0" d="M870.48,703.39c-13.86,21.97-30.39,42.82-49.61,62.04l101.55,101.55l3.44-108.21
		c96.31-138.81,101.94-318.73,15.26-454.05l-58.33,58.33C941.58,466.36,937.03,597.88,870.48,703.39z"/>
</g>
<polygon class="st1" points="343.95,512.5 21.62,1003 487.56,512.5 21.62,22 "/>
</svg>
